<svg xmlns="http://www.w3.org/2000/svg" viewBox="0 0 400 300">
  <title>Image not found</title>
  <g fill="rgba(0,0,0,0.42)">
    <path d="M326.461 156.117a4.779 4.779 0 0 0-3.213-2.409l-26.239-6.694a5.129 5.129 0 0 0-6.425 4.016l-5.891 23.83-22.761-5.624-1.071-.267a6.729 6.729 0 0 0-4.016.537 4.779 4.779 0 0 0-2.409 3.213l-5.891 23.83-23.83-5.891a5.13 5.13 0 0 0-6.425 4.016l-6.428 23.561-23.83-5.891a6.729 6.729 0 0 0-4.016.537 4.779 4.779 0 0 0-2.409 3.213l-.537 2.142-6.153 25.168a5.13 5.13 0 0 0 4.016 6.425l103.884 25.972a18.106 18.106 0 0 0 3.749.537 14.877 14.877 0 0 0 14.457-11.245l26.239-104.959a5.5 5.5 0 0 0-.8-4.016Zm-99.339 46.053 23.294 5.891a5.51 5.51 0 0 0 4.553-.537 4.977 4.977 0 0 0 2.409-4.016l4.553-18.474 14.994 19.818-7.5 29.988-47.661-12.049Zm63.459 60.247a4.23 4.23 0 0 1-5.087 3.213l-98.8-24.634 3.749-14.727 81.931 20.618c.267 0 .8.267 1.071.267h.267a2.026 2.026 0 0 0 1.071-.267h.267a1.384 1.384 0 0 0 1.071-.537 4.779 4.779 0 0 0 2.409-3.213l9.371-37.753a6.677 6.677 0 0 0-.8-4.553l-13.119-17.136 12.852 3.213a5.13 5.13 0 0 0 6.425-4.016l5.891-23.83 16.065 4.016Z"/>
    <path d="M181.067 201.099a5.369 5.369 0 0 0 5.354-5.354v-24.634h24.365a5.369 5.369 0 0 0 5.354-5.354v-24.363h24.365a5.369 5.369 0 0 0 5.354-5.354v-24.636h21.956a5.369 5.369 0 0 0 5.354-5.354V58.657a14.97 14.97 0 0 0-14.994-14.994H87.628a14.97 14.97 0 0 0-14.994 14.994v155.832a14.97 14.97 0 0 0 14.994 14.994h63.454a5.369 5.369 0 0 0 5.354-5.354v-22.76Zm24.367-40.7h-24.361a5.369 5.369 0 0 0-5.354 5.354v24.641h-66.132v-16.335l20.885-15.8 18.207 10.441a5.7 5.7 0 0 0 6.425-.8l39.9-38.557 10.441 8.3Zm-59.707 58.1h-58.1a4.229 4.229 0 0 1-4.283-4.283V58.66a4.229 4.229 0 0 1 4.283-4.283h170.558a4.229 4.229 0 0 1 4.283 4.283v42.3H240.78a5.369 5.369 0 0 0-5.354 5.354v24.634h-21.42l-15.8-12.585a5.29 5.29 0 0 0-6.961.267l-40.7 38.827-17.672-10.174a5.244 5.244 0 0 0-5.891.267l-25.972 19.547a5.592 5.592 0 0 0-2.142 4.283v24.631a5.494 5.494 0 0 0 5.356 5.356h41.5Z"/>
    <path d="M126.982 124.79a24.1 24.1 0 1 0-24.1-24.1c-.261 13.122 10.717 24.1 24.1 24.1Zm0-37.753a13.387 13.387 0 1 1-13.383 13.388 13.1 13.1 0 0 1 13.383-13.388Z"/>
  </g>
</svg>
