<?xml version="1.0" encoding="UTF-8"?>
<svg xmlns="http://www.w3.org/2000/svg" xmlns:xlink="http://www.w3.org/1999/xlink" width="271px" height="300px" viewBox="0 0 213 236" version="1.1">
  <!-- Generator: Sketch 64 (93537) - https://sketch.com -->
  <title>symbol-promach</title>
  <desc>Created with Sketch.</desc>
  <g id="Page-1" stroke="none" stroke-width="1" fill="none" fill-rule="evenodd">
    <g id="symbol-promach" transform="translate(0.000000, -1.000000)" fill="#009A76" fill-rule="nonzero">
      <g id="Group" transform="translate(106.500000, 118.700000) scale(-1, 1) rotate(-180.000000) translate(-106.500000, -118.700000) translate(0.000000, 0.700000)">
        <path d="M13.8,234.3 C9,232.8 4.4,228.9 2,224.1 C0.2,220.3 0.1,216.9 0,110.1 L0,0 L30.2,0 L60.5,0 L60.5,117.6 L60.5,235.2 L39,235.3 C25.9,235.4 16.1,235 13.8,234.3 Z" id="Path"></path>
        <polygon id="Path" points="76 155.1 76 74.7 106.2 74.9 136.5 75.2 136.5 155.2 136.5 235.2 106.3 235.3 76 235.5"></polygon>
        <path d="M152.1,155 L152.2,74.7 L182.3,74.9 L212.5,75.2 L212.5,147.6 C212.5,214.3 212.4,220.2 210.8,223.7 C208.6,228.4 202.7,233.4 198,234.6 C196.1,235.1 185,235.5 173.3,235.5 L152.1,235.4 L152.1,155 Z" id="Path"></path>
      </g>
    </g>
  </g>
</svg>
